<?xml version="1.0" encoding="utf-8"?>
<!-- Generator: Adobe Illustrator 22.0.1, SVG Export Plug-In . SVG Version: 6.00 Build 0)  -->
<svg version="1.1" id="Layer_1" xmlns="http://www.w3.org/2000/svg" xmlns:xlink="http://www.w3.org/1999/xlink" x="0px" y="0px" viewBox="0 0 378.5 92.5" style="enable-background:new 0 0 378.5 92.5;" xml:space="preserve">
<g>
	<path d="M120.4,60.1c-3.8,0-7.3-0.4-10.4-1.2c-3.1-0.8-5.8-2.1-8-3.7c-2.2-1.6-4-3.7-5.2-6.1c-1.3-2.4-1.9-5.2-2-8.4l14.3,0
		c0.3,2.9,1.4,5,3.3,6.3c1.9,1.3,4.5,1.9,7.9,1.9c1.2,0,2.3-0.1,3.4-0.3c1.1-0.2,2.1-0.6,2.9-1c0.9-0.5,1.6-1.1,2.1-1.9
		c0.5-0.8,0.8-1.7,0.8-2.8c0-1.1-0.3-2.1-0.8-2.8c-0.6-0.7-1.4-1.4-2.4-1.9c-1.1-0.5-2.4-1-3.9-1.4s-3.3-0.8-5.3-1.3
		c-2.5-0.6-5-1.3-7.4-2c-2.4-0.7-4.6-1.8-6.5-3.1c-1.9-1.3-3.5-2.9-4.7-4.9c-1.2-2-1.8-4.5-1.8-7.5c0-3,0.6-5.7,1.8-7.9
		c1.2-2.2,2.8-4.1,4.8-5.5c2-1.4,4.4-2.5,7.2-3.2c2.8-0.7,5.8-1,9-1c3.1,0,6,0.4,8.7,1.1c2.7,0.7,5.1,1.8,7.1,3.3
		c2,1.4,3.6,3.3,4.8,5.5c1.2,2.2,1.9,4.8,2,7.8l-13.9,0c-0.3-2.2-1.2-4-2.8-5.1c-1.6-1.2-3.7-1.8-6.4-1.8c-2.5,0-4.5,0.5-6,1.5
		c-1.5,1-2.2,2.3-2.2,3.9c0,1,0.3,1.9,0.8,2.5c0.6,0.7,1.4,1.2,2.4,1.7c1.1,0.5,2.4,0.9,4.1,1.3c1.6,0.4,3.5,0.8,5.7,1.3
		c2.7,0.6,5.2,1.4,7.7,2.2c2.4,0.8,4.6,1.9,6.5,3.2c1.9,1.3,3.4,3,4.5,5.1c1.1,2,1.7,4.6,1.7,7.6c0,3-0.6,5.7-1.8,8
		c-1.2,2.3-2.9,4.3-5,5.9c-2.1,1.6-4.6,2.8-7.5,3.6C126.8,59.6,123.7,60.1,120.4,60.1z"/>
	<path d="M161.1,59.9c-4.8,0-8.4-1.4-10.8-4.2c-2.4-2.8-3.7-6.5-3.7-11.1v-27l13,0v24.2c0,2.2,0.5,4,1.5,5.2c1,1.2,2.6,1.8,4.7,1.8
		c2.2,0,4-0.8,5.3-2.3c1.3-1.5,1.9-3.5,1.9-6v-23l13.1,0v41.1l-12.5,0v-5.1h-0.2c-1.5,2-3.2,3.6-5.1,4.7
		C166.3,59.4,164,59.9,161.1,59.9z"/>
	<path d="M190.4,17.6l12.5,0v5h0.2c1.4-1.9,3.1-3.4,5.1-4.5c2-1.1,4.5-1.7,7.3-1.7c2.7,0,5.2,0.5,7.3,1.6c2.2,1.1,4,2.6,5.5,4.6
		c1.5,2,2.7,4.3,3.5,6.9c0.8,2.6,1.2,5.5,1.2,8.6c0,3.3-0.4,6.3-1.3,9c-0.9,2.7-2.1,5-3.7,6.9c-1.6,1.9-3.5,3.4-5.7,4.4
		c-2.2,1-4.6,1.5-7.3,1.5c-2.7,0-5-0.5-6.9-1.5c-1.9-1-3.5-2.3-4.8-4.1h-0.2v17.8l-13.1,0V17.6z M211.9,49.9c2.5,0,4.5-1,5.9-3
		c1.4-2,2.1-4.7,2.1-8.3c0-3.5-0.7-6.4-2-8.5c-1.3-2.1-3.4-3.2-6.3-3.2c-1.4,0-2.7,0.3-3.8,0.9c-1.1,0.6-2,1.4-2.7,2.4
		c-0.7,1-1.3,2.3-1.6,3.7c-0.3,1.4-0.5,3-0.5,4.7c0,3.4,0.8,6.1,2.3,8.1C206.9,48.8,209.1,49.9,211.9,49.9z"/>
	<path d="M235.7,17.6l12.5,0v5h0.2c1.4-1.9,3.1-3.4,5.1-4.5c2-1.1,4.5-1.7,7.3-1.7c2.7,0,5.2,0.5,7.3,1.6c2.2,1.1,4,2.6,5.5,4.6
		c1.5,2,2.7,4.3,3.5,6.9c0.8,2.6,1.2,5.5,1.2,8.6c0,3.3-0.4,6.3-1.3,9c-0.9,2.7-2.1,5-3.7,6.9c-1.6,1.9-3.5,3.4-5.7,4.4
		c-2.2,1-4.6,1.5-7.3,1.5c-2.7,0-5-0.5-6.9-1.5c-1.9-1-3.5-2.3-4.8-4.1h-0.2v17.8h-13.1V17.6z M257.2,49.9c2.5,0,4.5-1,5.9-3
		c1.4-2,2.1-4.7,2.1-8.3c0-3.5-0.7-6.4-2-8.5c-1.3-2.1-3.4-3.2-6.3-3.2c-1.4,0-2.7,0.3-3.8,0.9c-1.1,0.6-2,1.4-2.7,2.4
		c-0.7,1-1.3,2.3-1.6,3.7c-0.3,1.4-0.5,3-0.5,4.7c0,3.4,0.8,6.1,2.3,8.1C252.2,48.8,254.4,49.9,257.2,49.9z"/>
	<path d="M301.1,60c-3.3,0-6.3-0.5-9-1.6c-2.7-1.1-5-2.6-6.9-4.6c-1.9-2-3.4-4.3-4.5-6.9s-1.6-5.5-1.6-8.6c0-3.1,0.5-6,1.6-8.6
		s2.5-4.9,4.5-6.9c1.9-2,4.2-3.5,6.9-4.6c2.7-1.1,5.7-1.6,9-1.6c3.3,0,6.3,0.5,9,1.6c2.7,1.1,5,2.6,6.9,4.6c1.9,2,3.4,4.3,4.4,6.9
		c1,2.6,1.6,5.5,1.6,8.6c0,3.1-0.5,6-1.6,8.6c-1,2.6-2.5,4.9-4.4,6.9c-1.9,2-4.2,3.5-6.9,4.6C307.4,59.4,304.4,60,301.1,60z
		 M301,50.7c2.9,0,5.1-1.1,6.5-3.4c1.5-2.3,2.2-5.3,2.2-9c0-3.7-0.7-6.8-2.2-9.1c-1.5-2.3-3.7-3.5-6.5-3.5c-2.9,0-5.1,1.2-6.5,3.5
		c-1.4,2.3-2.2,5.3-2.2,9.1c0,3.7,0.7,6.8,2.2,9C296,49.5,298.1,50.7,301,50.7z"/>
	<path d="M325.5,17.6l12.5,0V24h0.2c1.4-2.5,3-4.3,4.8-5.4c1.8-1.1,3.9-1.7,6.4-1.7c1.2,0,2.1,0.1,2.6,0.3v11.2h-0.3
		c-4-0.6-7.2,0.1-9.6,2c-2.4,2-3.6,5.2-3.6,9.7v18.5l-13.1,0V17.6z"/>
	<path d="M371.4,59.2c-1.9,0-3.7-0.2-5.3-0.5c-1.6-0.3-3-0.9-4.1-1.8c-1.2-0.9-2.1-2-2.7-3.5c-0.6-1.5-1-3.3-1-5.5V25.8h-5.5v-8.2
		l5.5,0v-13l12.8,0v13l7.5,0v8.2l-7.5,0v19.3c0,1.6,0.4,2.7,1.2,3.2c0.8,0.5,1.9,0.8,3.3,0.8c0.6,0,1.2,0,1.7,0c0.5,0,0.9,0,1.2,0
		v9.5c-0.6,0.2-1.5,0.3-2.7,0.4C374.7,59.1,373.2,59.2,371.4,59.2z"/>
</g>
<g>
	<path d="M91.3,60c0,0-17.6,0-19.7,0c-0.3-2.1-3.1-19.6-3.1-19.6S57.7,58.6,56.9,59.9h-2.2c-1.3-2.3-1.8-5.6-1.8-7.6
		c0-3.4,0.2-6.6,0.2-10.9c0-5.7-1.7-8.7-6.1-9.7v-0.2c9.4-1.3,13.7-7.5,13.7-16.3C60.8,2.7,52.5,0,41.6,0H12.4L0,58.6h15.5l4.5-21.3
		h10.3c5.5,0,7.8,2.7,7.8,7.9c0,3.9-0.4,7-0.4,10.1c0,1.1,0.3,3.7,1,4.7c0,0,0,0,0,0S48.8,70.5,50,71.8c-0.7,1.6-9.7,20.8-9.7,20.8
		S59.5,81.2,61,80.3c1.4,1,15.4,11.8,15.4,11.8s-2.6-18-2.9-19.6C74.8,71.6,91.3,60,91.3,60z M35,26.3H22.7l3-14.1h11.5
		c4.1,0,8.3,1.1,8.3,6.1C45.5,24.6,40.6,26.3,35,26.3z M61.2,76.8c0,0-9.6,5.7-14.4,8.5c2.3-4.8,6.6-14.2,6.6-14.2s-5.3-5.6-8-8.4
		c4.1,0,13.2,0,13.2,0s5.8-9.7,8.3-14.1c0.7,4.6,2.3,14.2,2.3,14.2s8.3,0,13.1,0c-4.2,2.9-11.8,8.3-11.8,8.3s1.5,10,2.1,14.4
		C69.1,82.8,61.2,76.8,61.2,76.8z"/>
</g>
</svg>
