<?xml version="1.0" encoding="utf-8"?>
<!-- Generator: Adobe Illustrator 18.1.0, SVG Export Plug-In . SVG Version: 6.00 Build 0)  -->
<svg version="1.1" id="Layer_1" xmlns="http://www.w3.org/2000/svg" xmlns:xlink="http://www.w3.org/1999/xlink" x="0px" y="0px" viewBox="0 0 25.8 15.5" enable-background="new 0 0 25.8 15.5" xml:space="preserve">
<g>
	<defs>
		<rect id="SVGID_1_" width="25.8" height="15.5"/>
	</defs>
	<clipPath id="SVGID_2_">
		<use xlink:href="#SVGID_1_"  overflow="visible"/>
	</clipPath>
	<path clip-path="url(#SVGID_2_)" fill="#11ca4c" d="M12.9,0C8,0,3.4,1.9,0,5.3l2.4,2.4C5.2,4.9,9,3.3,12.9,3.3
		c4,0,7.7,1.6,10.5,4.4l2.4-2.4C22.4,1.9,17.8,0,12.9,0"/>
	<path clip-path="url(#SVGID_2_)" fill="#11ca4c" d="M3.8,9.2l2.4,2.4c3.7-3.7,9.7-3.7,13.4,0L22,9.2C17,4.2,8.8,4.2,3.8,9.2"/>
	<path clip-path="url(#SVGID_2_)" fill="#11ca4c" d="M7.6,13.1l2.4,2.4c1.6-1.6,4.2-1.6,5.8,0l2.4-2.4C15.3,10.2,10.5,10.2,7.6,13.1"/>
</g>
</svg>
