<?xml version="1.0" encoding="utf-8"?>
<!-- Generator: Adobe Illustrator 18.1.1, SVG Export Plug-In . SVG Version: 6.00 Build 0)  -->
<svg version="1.1" id="Layer_1" xmlns="http://www.w3.org/2000/svg" xmlns:xlink="http://www.w3.org/1999/xlink" x="0px" y="0px"
	 viewBox="0 0 147.4 135.7" enable-background="new 0 0 147.4 135.7" xml:space="preserve">
<g>
	<g>
		<path d="M146.3,134.7c-0.7,0.7-1.5,1-2.4,1c-0.9,0-1.7-0.3-2.4-1c-0.7-0.7-1-1.5-1-2.4c0-0.9,0.3-1.7,1-2.4c0.7-0.7,1.4-1,2.4-1
			c0.9,0,1.7,0.3,2.4,1c0.7,0.7,1,1.4,1,2.4C147.3,133.2,147,134,146.3,134.7z M141.9,130.2c-0.6,0.6-0.8,1.3-0.8,2
			c0,0.8,0.3,1.5,0.8,2.1c0.6,0.6,1.3,0.9,2.1,0.9c0.8,0,1.5-0.3,2.1-0.9c0.6-0.6,0.8-1.3,0.8-2.1c0-0.8-0.3-1.5-0.8-2
			c-0.6-0.6-1.3-0.9-2.1-0.9C143.1,129.4,142.5,129.7,141.9,130.2z M143.9,130.4c0.5,0,0.8,0,1,0.1c0.4,0.2,0.6,0.5,0.6,0.9
			c0,0.3-0.1,0.6-0.4,0.7c-0.1,0.1-0.3,0.1-0.5,0.2c0.3,0,0.5,0.2,0.6,0.4c0.1,0.2,0.2,0.4,0.2,0.6v0.3c0,0.1,0,0.2,0,0.3
			c0,0.1,0,0.2,0,0.2l0,0h-0.6c0,0,0,0,0,0c0,0,0,0,0,0l0-0.1v-0.3c0-0.4-0.1-0.7-0.4-0.8c-0.1-0.1-0.4-0.1-0.7-0.1h-0.5v1.4h-0.7
			v-3.7H143.9z M144.6,131c-0.2-0.1-0.4-0.1-0.8-0.1h-0.6v1.3h0.6c0.3,0,0.5,0,0.6-0.1c0.3-0.1,0.4-0.3,0.4-0.6
			C144.8,131.3,144.7,131.1,144.6,131z"/>
	</g>
	<g>
		<path d="M26.1,0C11.7,0,0,11.4,0,25.3v85c0,14.2,11.4,25.2,25.9,25.2h95.6c14.5,0,25.9-11.1,25.9-25.2v-85
			c0-14.2-11.3-25.3-25.6-25.3H26.1z M2.9,110.3v-85c0-12.6,10.2-22.4,23.2-22.4h95.6c12.7,0,22.7,9.9,22.7,22.4v85
			c0,12.5-10.1,22.3-23,22.3H25.9C13,132.6,2.9,122.8,2.9,110.3z"/>
	</g>
	<path d="M126.5,80.2c0,0-16.5,0-18.5,0c-0.3-1.9-2.9-18.4-2.9-18.4S95,78.8,94.3,80.1h-2c-1.2-2.1-1.7-5.2-1.7-7.1
		c0-3.1,0.2-6.2,0.2-10.2c0-5.3-1.6-8.1-5.7-9.1v-0.2c8.8-1.2,12.8-7.1,12.8-15.3c0-11.7-7.8-14.2-18-14.2H52.5L40.9,78.8h14.6
		l4.2-20h9.7c5.2,0,7.3,2.5,7.3,7.4c0,3.7-0.4,6.6-0.4,9.4c0,1,0.2,3.5,1,4.4c0,0,0,0,0,0s9.5,10,10.6,11.1
		c-0.7,1.5-9.1,19.5-9.1,19.5s18-10.7,19.4-11.5c1.3,1,14.4,11.1,14.4,11.1s-2.5-16.9-2.7-18.4C111.1,91,126.5,80.2,126.5,80.2z
		 M73.8,48.6H62.2l2.8-13.2h10.8c3.8,0,7.8,1,7.8,5.7C83.5,46.9,79,48.6,73.8,48.6z M98.3,95.9c0,0-9,5.4-13.5,8
		c2.1-4.5,6.2-13.3,6.2-13.3s-5-5.3-7.5-7.9c3.9,0,12.3,0,12.3,0s5.4-9.1,7.8-13.2c0.7,4.3,2.1,13.3,2.1,13.3s7.8,0,12.2,0
		c-3.9,2.7-11,7.7-11,7.7s1.4,9.3,2,13.5C105.6,101.6,98.3,95.9,98.3,95.9z"/>
</g>
</svg>
